<?xml version="1.0" standalone="no"?>
<!DOCTYPE svg PUBLIC "-//W3C//DTD SVG 20010904//EN"
 "http://www.w3.org/TR/2001/REC-SVG-20010904/DTD/svg10.dtd">
<svg version="1.0" xmlns="http://www.w3.org/2000/svg"
 width="500.000000pt" height="500.000000pt" viewBox="0 0 500.000000 500.000000"
 preserveAspectRatio="xMidYMid meet">

<g transform="translate(0.000000,500.000000) scale(0.100000,-0.100000)"
fill="#000000" stroke="none">
<path d="M1202 4675 c-272 -49 -510 -189 -678 -399 -207 -259 -297 -567 -234
-810 52 -204 172 -331 380 -402 44 -15 84 -19 195 -19 151 0 195 9 305 66 83
43 121 78 43 39 -98 -48 -180 -63 -313 -57 -129 5 -182 20 -291 85 -81 49
-134 124 -175 248 -26 80 -29 102 -28 214 1 151 25 245 108 415 121 250 323
446 566 550 77 33 198 68 265 78 18 2 10 4 -20 5 -27 0 -83 -6 -123 -13z"/>
<path d="M1730 3838 l65 -33 9 23 c4 13 5 26 2 30 -4 3 -37 8 -74 10 l-67 4
65 -34z"/>
<path d="M3853 3419 c-18 -18 -16 -70 3 -98 23 -32 90 -61 144 -61 l45 0 1
-53 c3 -110 1 -106 24 -69 34 55 67 40 48 -21 -13 -43 -8 -52 27 -43 61 15
108 151 70 202 -8 10 -15 33 -15 50 0 58 -35 74 -185 84 -60 5 -119 11 -130
15 -11 3 -26 0 -32 -6z"/>
<path d="M3912 3218 c7 -15 15 -23 17 -17 2 6 -4 18 -13 27 -15 15 -15 15 -4
-10z"/>
<path d="M3957 3193 c3 -7 6 -13 8 -13 2 0 5 6 8 13 3 8 -1 14 -8 14 -7 0 -11
-6 -8 -14z"/>
<path d="M3960 3151 c0 -6 4 -13 10 -16 6 -3 7 1 4 9 -7 18 -14 21 -14 7z"/>
<path d="M1876 2994 c-89 -191 -232 -388 -455 -629 -229 -246 -291 -388 -291
-666 0 -125 2 -139 26 -187 49 -99 139 -153 264 -159 l75 -4 -51 21 c-69 27
-127 80 -158 142 -24 48 -26 62 -26 187 0 290 61 421 335 717 171 185 286 340
371 497 l42 81 -36 45 c-20 25 -39 49 -42 53 -3 4 -27 -40 -54 -98z"/>
<path d="M4229 2921 c10 -7 12 -21 7 -52 -5 -36 -4 -40 5 -24 7 11 21 30 32
42 l20 22 -27 11 c-34 13 -57 13 -37 1z"/>
<path d="M3699 2828 c-11 -26 -13 -89 -12 -290 3 -235 1 -258 -15 -268 -11 -8
-12 -10 -2 -7 25 6 43 58 43 127 0 36 -3 135 -7 220 -5 100 -4 171 2 200 13
54 9 62 -9 18z"/>
<path d="M4223 2740 c0 -47 2 -66 4 -42 2 23 2 61 0 85 -2 23 -4 4 -4 -43z"/>
<path d="M4363 2597 l2 -188 -25 28 c-14 15 -38 44 -53 63 -16 20 -24 25 -17
12 7 -14 10 -66 8 -137 l-3 -115 37 0 c47 0 62 22 79 111 9 52 9 99 0 210 -18
227 -30 233 -28 16z"/>
<path d="M4232 2615 c0 -16 2 -22 5 -12 2 9 2 23 0 30 -3 6 -5 -1 -5 -18z"/>
<path d="M4242 2163 l3 -113 -49 -21 c-100 -43 -304 -40 -439 5 -40 13 -74 23
-75 21 -2 -2 -6 -188 -9 -413 -6 -393 -5 -412 15 -488 11 -43 30 -132 42 -197
11 -64 28 -136 36 -160 8 -23 12 -53 9 -67 -4 -13 -7 -90 -8 -170 l-2 -145
-95 -31 c-95 -32 -120 -51 -134 -100 -6 -21 -4 -21 86 -17 177 7 274 15 285
21 5 4 13 33 16 65 5 52 4 58 -11 52 -38 -14 -98 -16 -115 -3 -15 11 -12 13
26 13 24 0 55 8 69 17 36 24 41 83 35 420 -4 209 -10 298 -25 378 -18 97 -18
114 -5 230 23 215 45 320 68 320 25 0 51 -146 75 -410 6 -69 22 -188 35 -265
48 -280 65 -422 65 -537 0 -105 2 -118 19 -128 27 -14 79 -2 124 28 l38 26 -5
80 c-3 45 -8 155 -11 246 -10 268 -25 471 -40 533 -13 52 -13 72 1 180 12 93
15 167 10 312 -3 105 -7 238 -9 297 -2 70 -7 112 -16 120 -10 11 -12 -9 -9
-99z"/>
<path d="M1384 1190 c-106 -21 -210 -104 -261 -208 -24 -50 -27 -69 -28 -152
0 -83 3 -102 27 -150 43 -87 90 -135 173 -176 63 -31 88 -38 152 -41 l78 -3
-42 14 c-104 34 -185 106 -232 205 -23 49 -26 68 -25 151 0 74 5 105 21 140
48 104 122 173 226 210 l52 19 -50 -1 c-27 0 -69 -4 -91 -8z"/>
<path d="M4257 419 c-10 -6 -41 -9 -68 -7 -48 3 -49 3 -64 -35 -26 -64 -22
-74 36 -82 59 -8 179 2 179 16 0 20 -46 119 -55 119 -5 0 -18 -5 -28 -11z"/>
</g>
</svg>
